<?xml version="1.0" ?>
<!-- Uploaded to: SVG Repo, www.svgrepo.com, Generator: SVG Repo Mixer Tools -->
<svg fill="#000000" width="800px" height="800px" viewBox="0 0 512 512" id="icon" version="1.1" xml:space="preserve" xmlns="http://www.w3.org/2000/svg" xmlns:xlink="http://www.w3.org/1999/xlink">
<g>
<path d="M150.7274933,118.9896011c1.0347137,1.0345993,2.390213,1.5521011,3.7456055,1.5521011   c1.3554993,0,2.7109985-0.5175018,3.7460938-1.5521011c2.0694122-2.0697021,2.0694122-5.4223022,0-7.4918976   l-23.3055878-23.3057022c-2.069809-2.069603-5.4224091-2.069603-7.4922028,0c-2.0693054,2.0697021-2.0693054,5.4223022,0,7.4917984   L150.7274933,118.9896011z"/>
<path d="M317.3232117,189.4161072v-24.5266113c0-2.9257965-2.3691101-5.2979889-5.297821-5.2979889h-30.4433899v-13.3978119   h27.1528931c20.8143921,0,37.7485046-16.9339905,37.7485046-37.7483978c0-20.8146973-16.9341125-37.7486954-37.7485046-37.7486954   c-20.8144836,0-37.7490845,16.9339981-37.7490845,37.7486954v27.1522064h-96.0268097   c-2.9257965,0-5.2978973,2.3722992-5.2978973,5.2982025c0,2.9256897,2.3721008,5.2979889,5.2978973,5.2979889h96.0268097   v13.3978119h-30.4423065c-2.9263,0-5.2984009,2.3721924-5.2984009,5.2979889v24.5266113   c-53.257309,17.5576935-90.1132965,68.1916809-90.1132965,124.5195007   c0,72.3152771,58.8344879,131.1524963,131.1524048,131.1524963c72.3148804,0,131.1522827-58.8372192,131.1522827-131.1524963   C407.4364929,257.6077881,370.5830078,206.9738007,317.3232117,189.4161072z M281.5820007,108.4452972   c0-14.9732971,12.1796875-27.1527939,27.1528931-27.1527939c14.973114,0,27.1523132,12.1794968,27.1523132,27.1527939   c0,14.9729004-12.1791992,27.1522064-27.1523132,27.1522064h-27.1528931V108.4452972z M276.2842102,434.4920959   c-66.4737091,0-120.5562134-54.0823975-120.5562134-120.556488c0-52.9933167,35.4956055-100.5076141,86.3179016-115.5453033   c2.2510071-0.6674042,3.7953949-2.7344055,3.7953949-5.0809021V170.1875h60.8858185v23.1219025   c0,2.3464966,1.5419006,4.4134979,3.7923889,5.0809021c50.8233032,15.0376892,86.3208008,62.5519867,86.3208008,115.5453033   C396.8403015,380.4096985,342.7583008,434.4920959,276.2842102,434.4920959z"/>
<path d="M217.6743011,239.0621033c-19.9008942,0-36.0923004,16.1915894-36.0923004,36.0928955   c0,19.9012146,16.1914063,36.0928955,36.0923004,36.0928955c19.9019012,0,36.0932922-16.1916809,36.0932922-36.0928955   C253.7675934,255.2536926,237.5762024,239.0621033,217.6743011,239.0621033z M217.6743011,300.6517029   c-14.0596008,0-25.4965973-11.4367065-25.4965973-25.4967041c0-14.0602112,11.4369965-25.4969025,25.4965973-25.4969025   c14.0605927,0,25.4971008,11.4366913,25.4971008,25.4969025   C243.171402,289.2149963,231.7348938,300.6517029,217.6743011,300.6517029z"/>
<path d="M196.9790039,317.208313c-11.4105988,0-20.6952972,9.2843018-20.6952972,20.695282   c0,11.4111938,9.2846985,20.6954956,20.6952972,20.6954956c11.4111023,0,20.6952972-9.2843018,20.6952972-20.6954956   C217.6743011,326.4926147,208.3901062,317.208313,196.9790039,317.208313z M196.9790039,348.0032043   c-5.5693054,0-10.0991058-4.5299072-10.0991058-10.0996094c0-5.5694885,4.5298004-10.0991821,10.0991058-10.0991821   c5.5702972,0,10.0995941,4.5296936,10.0995941,10.0991821C207.078598,343.4732971,202.5493011,348.0032043,196.9790039,348.0032043   z"/>
<path d="M148.1195984,140.678299c0-2.9259033-2.371994-5.2978973-5.2978058-5.2978973h-32.9599915   c-2.9263,0-5.2983017,2.371994-5.2983017,5.2978973c0,2.9257965,2.3720016,5.2980042,5.2983017,5.2980042h32.9599915   C145.7476044,145.9763031,148.1195984,143.6040955,148.1195984,140.678299z"/>
<path d="M158.2191925,162.3645935c-2.0697937-2.0694885-5.422287-2.0694885-7.4916992,0l-23.3060913,23.3058014   c-2.0693054,2.0695038-2.0693054,5.4221039,0,7.4916077c1.0350952,1.03479,2.3905945,1.5522919,3.7460938,1.5522919   c1.3554077,0,2.7114105-0.5175018,3.746109-1.5522919l23.3055878-23.305603   C160.2886047,167.7868958,160.2886047,164.4340973,158.2191925,162.3645935z"/>
<path d="M180.7230988,209.1441956v-32.9601898c0-2.925705-2.3724976-5.2980042-5.2982941-5.2980042   c-2.9258118,0-5.2978058,2.3722992-5.2978058,5.2980042v32.9601898c0,2.925705,2.371994,5.298111,5.2978058,5.298111   C178.3506012,214.4423065,180.7230988,212.0699005,180.7230988,209.1441956z"/>
<path d="M175.4248047,110.4681015c2.9257965,0,5.2982941-2.3722992,5.2982941-5.2980042V72.2098999   c0-2.9256973-2.3724976-5.2979965-5.2982941-5.2979965c-2.9258118,0-5.2978058,2.3722992-5.2978058,5.2979965v32.9601974   C170.1269989,108.0958023,172.4989929,110.4681015,175.4248047,110.4681015z"/>
</g>
</svg>